<svg xmlns="http://www.w3.org/2000/svg" xmlns:xlink="http://www.w3.org/1999/xlink" width="500" zoomAndPan="magnify" viewBox="0 0 375 374.999991" height="500" preserveAspectRatio="xMidYMid meet" version="1.0"><defs><g><g id="id1"/><g id="id2"/></g><clipPath id="id3"><path d="M 65.824219 45 L 173 45 L 173 214 L 65.824219 214 Z M 65.824219 45 " clip-rule="nonzero"/></clipPath><clipPath id="id4"><path d="M 174 12.667969 L 187 12.667969 L 187 85 L 174 85 Z M 174 12.667969 " clip-rule="nonzero"/></clipPath><clipPath id="id5"><path d="M 174 175 L 187 175 L 187 246.667969 L 174 246.667969 Z M 174 175 " clip-rule="nonzero"/></clipPath><clipPath id="id6"><path d="M 226 124 L 297.574219 124 L 297.574219 136 L 226 136 Z M 226 124 " clip-rule="nonzero"/></clipPath></defs><g clip-path="url(#id3)"><path fill="rgb(100%, 100%, 100%)" d="M 158.992188 134.066406 L 166.714844 134.066406 L 161.25 139.527344 L 153.210938 139.664062 Z M 161.25 119.839844 L 166.714844 125.292969 L 158.992188 125.292969 L 153.210938 119.707031 Z M 70.214844 134.066406 L 90.742188 134.066406 L 79.773438 144.667969 C 78.035156 146.347656 77.980469 149.125 79.667969 150.871094 C 81.355469 152.609375 84.128906 152.664062 85.875 150.976562 L 103.371094 134.066406 L 146.363281 134.066406 L 140.351562 139.875 L 136.925781 139.933594 C 134.503906 139.980469 132.570312 141.972656 132.609375 144.394531 C 132.628906 145.671875 133.195312 146.808594 134.078125 147.59375 C 134.011719 148.769531 134.414062 149.957031 135.289062 150.871094 C 136.976562 152.609375 139.757812 152.664062 141.496094 150.976562 L 143.964844 148.589844 L 152.324219 148.449219 L 121.921875 178.84375 L 97.59375 179.25 C 95.164062 179.296875 93.238281 181.292969 93.277344 183.714844 C 93.324219 186.136719 95.285156 188.054688 97.746094 188.023438 L 112.996094 187.765625 L 98.480469 202.273438 C 96.761719 203.992188 96.761719 206.765625 98.480469 208.476562 C 100.191406 210.195312 102.96875 210.195312 104.6875 208.476562 L 119.199219 193.96875 L 118.941406 209.222656 C 118.902344 211.644531 120.828125 213.640625 123.25 213.675781 L 123.332031 213.675781 C 125.71875 213.675781 127.671875 211.761719 127.71875 209.367188 L 128.125 185.046875 L 158.53125 154.652344 L 158.390625 163.011719 L 156.003906 165.476562 C 154.324219 167.214844 154.367188 169.992188 156.109375 171.679688 C 157.023438 172.566406 158.226562 172.957031 159.398438 172.890625 C 160.1875 173.769531 161.316406 174.339844 162.589844 174.363281 C 165.011719 174.421875 167.011719 172.476562 167.046875 170.046875 L 167.109375 166.621094 L 172.917969 160.613281 L 172.917969 147.988281 L 167.324219 153.769531 L 167.464844 145.730469 L 172.917969 140.269531 L 172.917969 119.089844 L 167.464844 113.636719 L 167.324219 105.589844 L 172.917969 111.378906 L 172.917969 98.75 L 167.109375 92.738281 L 167.046875 89.316406 C 167.011719 86.914062 165.046875 85.003906 162.664062 85.003906 L 162.589844 85.003906 C 161.308594 85.019531 160.1875 85.589844 159.398438 86.476562 C 159.320312 86.46875 159.238281 86.453125 159.164062 86.453125 C 158.0625 86.453125 156.960938 86.863281 156.109375 87.6875 C 154.367188 89.367188 154.324219 92.144531 156.003906 93.890625 L 158.390625 96.351562 L 158.53125 104.707031 L 128.125 74.320312 L 127.71875 49.996094 C 127.671875 47.597656 125.71875 45.683594 123.332031 45.683594 L 123.25 45.683594 C 120.828125 45.726562 118.902344 47.726562 118.941406 50.148438 L 119.199219 65.390625 L 104.6875 50.882812 C 103.832031 50.027344 102.699219 49.597656 101.578125 49.597656 C 100.457031 49.597656 99.335938 50.027344 98.480469 50.882812 C 96.761719 52.597656 96.761719 55.375 98.480469 57.085938 L 112.996094 71.59375 L 97.746094 71.335938 L 97.660156 71.335938 C 95.277344 71.335938 93.324219 73.25 93.277344 75.652344 C 93.238281 78.074219 95.164062 80.070312 97.59375 80.109375 L 121.921875 80.523438 L 152.324219 110.910156 L 143.964844 110.769531 L 141.496094 108.390625 C 140.640625 107.566406 139.550781 107.15625 138.449219 107.15625 C 137.296875 107.15625 136.152344 107.601562 135.289062 108.496094 C 134.40625 109.410156 134.011719 110.605469 134.078125 111.785156 C 133.203125 112.574219 132.628906 113.695312 132.609375 114.96875 C 132.570312 117.390625 134.503906 119.386719 136.925781 119.421875 L 140.351562 119.484375 L 146.363281 125.292969 L 103.371094 125.292969 L 85.875 108.390625 C 85.019531 107.566406 83.921875 107.15625 82.828125 107.15625 C 81.675781 107.15625 80.53125 107.601562 79.667969 108.496094 C 77.980469 110.234375 78.035156 113.011719 79.773438 114.699219 L 90.742188 125.292969 L 70.214844 125.292969 C 67.792969 125.292969 65.824219 127.261719 65.824219 129.683594 C 65.824219 132.105469 67.792969 134.066406 70.214844 134.066406 " fill-opacity="1" fill-rule="nonzero"/></g><g clip-path="url(#id4)"><path fill="rgb(93.728638%, 18.03894%, 19.999695%)" d="M 180.523438 84.109375 C 177.449219 84.109375 174.957031 81.617188 174.957031 78.546875 L 174.957031 18.242188 C 174.957031 15.167969 177.449219 12.679688 180.523438 12.679688 C 183.597656 12.679688 186.089844 15.167969 186.089844 18.242188 L 186.089844 78.546875 C 186.089844 81.617188 183.597656 84.109375 180.523438 84.109375 " fill-opacity="1" fill-rule="nonzero"/></g><g clip-path="url(#id5)"><path fill="rgb(93.728638%, 18.03894%, 19.999695%)" d="M 180.523438 246.683594 C 177.449219 246.683594 174.957031 244.191406 174.957031 241.117188 L 174.957031 180.816406 C 174.957031 177.742188 177.449219 175.25 180.523438 175.25 C 183.597656 175.25 186.089844 177.742188 186.089844 180.816406 L 186.089844 241.117188 C 186.089844 244.191406 183.597656 246.683594 180.523438 246.683594 " fill-opacity="1" fill-rule="nonzero"/></g><path fill="rgb(93.728638%, 18.03894%, 19.999695%)" d="M 236.269531 231.753906 C 234.347656 231.753906 232.472656 230.753906 231.445312 228.972656 L 201.28125 176.746094 C 199.742188 174.085938 200.65625 170.679688 203.316406 169.144531 C 205.980469 167.609375 209.382812 168.519531 210.921875 171.183594 L 241.085938 223.40625 C 242.621094 226.066406 241.710938 229.472656 239.046875 231.007812 C 238.171875 231.515625 237.214844 231.753906 236.269531 231.753906 " fill-opacity="1" fill-rule="nonzero"/><path fill="rgb(93.728638%, 18.03894%, 19.999695%)" d="M 277.0625 190.964844 C 276.121094 190.964844 275.160156 190.722656 274.28125 190.21875 L 222.042969 160.066406 C 219.375 158.527344 218.464844 155.125 220.003906 152.464844 C 221.539062 149.804688 224.945312 148.890625 227.609375 150.429688 L 279.855469 180.582031 C 282.515625 182.113281 283.425781 185.519531 281.890625 188.179688 C 280.859375 189.964844 278.988281 190.964844 277.0625 190.964844 " fill-opacity="1" fill-rule="nonzero"/><g clip-path="url(#id6)"><path fill="rgb(93.728638%, 18.03894%, 19.999695%)" d="M 292.003906 135.246094 L 231.679688 135.246094 C 228.601562 135.246094 226.109375 132.753906 226.109375 129.679688 C 226.109375 126.605469 228.601562 124.113281 231.679688 124.113281 L 292.003906 124.113281 C 295.078125 124.113281 297.570312 126.605469 297.570312 129.679688 C 297.570312 132.753906 295.078125 135.246094 292.003906 135.246094 " fill-opacity="1" fill-rule="nonzero"/></g><path fill="rgb(93.728638%, 18.03894%, 19.999695%)" d="M 224.832031 109.675781 C 222.90625 109.675781 221.035156 108.683594 220.003906 106.894531 C 218.464844 104.234375 219.375 100.828125 222.042969 99.292969 L 274.28125 69.140625 C 276.949219 67.605469 280.351562 68.515625 281.890625 71.179688 C 283.425781 73.839844 282.515625 77.242188 279.855469 78.78125 L 227.609375 108.929688 C 226.730469 109.4375 225.773438 109.675781 224.832031 109.675781 " fill-opacity="1" fill-rule="nonzero"/><path fill="rgb(93.728638%, 18.03894%, 19.999695%)" d="M 206.09375 90.960938 C 205.148438 90.960938 204.191406 90.71875 203.316406 90.214844 C 200.65625 88.679688 199.742188 85.273438 201.28125 82.613281 L 231.445312 30.390625 C 232.980469 27.726562 236.382812 26.816406 239.046875 28.351562 C 241.710938 29.890625 242.621094 33.292969 241.085938 35.953125 L 210.921875 88.175781 C 209.890625 89.964844 208.019531 90.960938 206.09375 90.960938 " fill-opacity="1" fill-rule="nonzero"/><path fill="rgb(93.728638%, 18.03894%, 19.999695%)" d="M 212.0625 129.679688 C 212.0625 147.09375 197.941406 161.199219 180.519531 161.199219 L 180.519531 98.152344 C 197.941406 98.152344 212.0625 112.265625 212.0625 129.679688 " fill-opacity="1" fill-rule="nonzero"/><g fill="rgb(100%, 100%, 100%)" fill-opacity="1"><g transform="translate(22.761062, 294.665093)"><g><path d="M 16.65625 11.265625 C 13.550781 11.265625 10.847656 10.785156 8.546875 9.828125 C 6.242188 8.878906 4.453125 7.472656 3.171875 5.609375 C 1.898438 3.742188 1.265625 1.421875 1.265625 -1.359375 C 1.265625 -2.460938 1.414062 -3.867188 1.71875 -5.578125 C 2.03125 -7.296875 2.71875 -9.335938 3.78125 -11.703125 L 9.765625 -9.609375 C 9.210938 -8.085938 8.789062 -6.785156 8.5 -5.703125 C 8.207031 -4.617188 8.0625 -3.5625 8.0625 -2.53125 C 8.0625 -1.226562 8.351562 -0.0507812 8.9375 1 C 9.519531 2.050781 10.457031 2.890625 11.75 3.515625 C 13.039062 4.148438 14.738281 4.46875 16.84375 4.46875 C 19.4375 4.46875 21.460938 4.09375 22.921875 3.34375 C 24.378906 2.601562 25.398438 1.601562 25.984375 0.34375 C 26.566406 -0.914062 26.859375 -2.328125 26.859375 -3.890625 C 26.859375 -5.210938 26.625 -6.8125 26.15625 -8.6875 C 25.6875 -10.570312 25.078125 -12.644531 24.328125 -14.90625 L 31.125 -16.65625 C 31.582031 -14.78125 31.945312 -13.320312 32.21875 -12.28125 C 32.5 -11.25 32.71875 -10.472656 32.875 -9.953125 C 33.363281 -8.492188 34.007812 -7.546875 34.8125 -7.109375 C 35.625 -6.671875 36.582031 -6.46875 37.6875 -6.5 C 38.300781 -6.5 38.863281 -6.597656 39.375 -6.796875 C 39.894531 -6.992188 40.375 -7.40625 40.8125 -8.03125 C 41.25 -8.664062 41.644531 -9.644531 42 -10.96875 C 42.363281 -12.300781 42.691406 -14.132812 42.984375 -16.46875 L 49.390625 -15.4375 C 49.191406 -14.3125 48.992188 -13.113281 48.796875 -11.84375 C 48.609375 -10.582031 48.515625 -9.613281 48.515625 -8.9375 C 48.515625 -8.289062 48.8125 -7.734375 49.40625 -7.265625 C 50.007812 -6.796875 51.203125 -6.5625 52.984375 -6.5625 C 54.304688 -6.5625 55.351562 -6.773438 56.125 -7.203125 C 56.90625 -7.640625 57.296875 -8.570312 57.296875 -10 C 57.296875 -11.226562 57.019531 -12.8125 56.46875 -14.75 C 55.925781 -16.695312 55.28125 -18.738281 54.53125 -20.875 L 61.390625 -22.921875 C 61.898438 -21.523438 62.359375 -20.039062 62.765625 -18.46875 C 63.171875 -16.90625 63.492188 -15.378906 63.734375 -13.890625 C 63.984375 -12.398438 64.109375 -11.117188 64.109375 -10.046875 C 64.109375 -6.585938 63.117188 -4.003906 61.140625 -2.296875 C 59.160156 -0.597656 56.488281 0.25 53.125 0.25 C 51.3125 0.25 49.734375 -0.046875 48.390625 -0.640625 C 47.046875 -1.242188 46.082031 -2.097656 45.5 -3.203125 C 44.65625 -1.742188 43.609375 -0.800781 42.359375 -0.375 C 41.117188 0.0390625 39.867188 0.25 38.609375 0.25 C 37.566406 0.25 36.578125 0.117188 35.640625 -0.140625 C 34.703125 -0.398438 33.894531 -0.820312 33.21875 -1.40625 C 32.789062 2.601562 31.113281 5.71875 28.1875 7.9375 C 25.257812 10.15625 21.414062 11.265625 16.65625 11.265625 Z M 16.65625 11.265625 "/></g></g></g><g fill="rgb(100%, 100%, 100%)" fill-opacity="1"><g transform="translate(92.189272, 294.665093)"><g><path d="M 0.78125 11.171875 L -1.703125 4.953125 C 2.441406 3.492188 5.453125 1.820312 7.328125 -0.0625 C 9.210938 -1.957031 10.15625 -3.976562 10.15625 -6.125 C 10.15625 -7.476562 9.863281 -8.929688 9.28125 -10.484375 C 8.695312 -12.046875 7.9375 -13.734375 7 -15.546875 L 13.359375 -18.59375 C 14.484375 -16.425781 15.363281 -14.351562 16 -12.375 C 16.632812 -10.40625 16.953125 -8.5625 16.953125 -6.84375 C 16.953125 -2.863281 15.65625 0.644531 13.0625 3.6875 C 10.46875 6.726562 6.375 9.222656 0.78125 11.171875 Z M 0.78125 11.171875 "/></g></g></g><g fill="rgb(100%, 100%, 100%)" fill-opacity="1"><g transform="translate(114.960129, 294.665093)"><g><path d="M 15.390625 0.25 C 12.378906 0.25 10.054688 -0.0546875 8.421875 -0.671875 C 6.785156 -1.296875 5.632812 -2.257812 4.96875 -3.5625 C 4.3125 -4.875 3.953125 -6.535156 3.890625 -8.546875 L 2.859375 -35.546875 L 9.65625 -35.546875 L 10.6875 -11.796875 C 10.75 -10.304688 10.910156 -9.1875 11.171875 -8.4375 C 11.429688 -7.695312 11.914062 -7.195312 12.625 -6.9375 C 13.332031 -6.6875 14.414062 -6.5625 15.875 -6.5625 C 17.070312 -6.5625 17.945312 -6.242188 18.5 -5.609375 C 19.050781 -4.972656 19.328125 -4.1875 19.328125 -3.25 C 19.328125 -2.25 18.984375 -1.414062 18.296875 -0.75 C 17.617188 -0.0820312 16.648438 0.25 15.390625 0.25 Z M 15.390625 0.25 "/></g></g></g><g fill="rgb(100%, 100%, 100%)" fill-opacity="1"><g transform="translate(133.312858, 294.665093)"><g><path d="M 0 0.25 L 0.484375 -6.5 C 1.453125 -6.46875 2.363281 -6.476562 3.21875 -6.53125 C 4.082031 -6.582031 4.890625 -6.640625 5.640625 -6.703125 C 4.921875 -7.546875 4.328125 -8.492188 3.859375 -9.546875 C 3.390625 -10.597656 3.15625 -11.785156 3.15625 -13.109375 C 3.15625 -15.117188 3.65625 -16.875 4.65625 -18.375 C 5.664062 -19.882812 6.9375 -21.0625 8.46875 -21.90625 C 10.007812 -22.75 11.585938 -23.171875 13.203125 -23.171875 C 15.148438 -23.171875 16.832031 -22.710938 18.25 -21.796875 C 19.675781 -20.890625 20.785156 -19.703125 21.578125 -18.234375 C 22.378906 -16.765625 22.78125 -15.1875 22.78125 -13.5 C 22.78125 -12.132812 22.550781 -10.882812 22.09375 -9.75 C 21.644531 -8.625 21.046875 -7.625 20.296875 -6.75 C 21.265625 -6.6875 22.242188 -6.640625 23.234375 -6.609375 C 24.222656 -6.578125 25.1875 -6.5625 26.125 -6.5625 C 27.351562 -6.5625 28.234375 -6.242188 28.765625 -5.609375 C 29.304688 -4.972656 29.578125 -4.1875 29.578125 -3.25 C 29.578125 -2.25 29.234375 -1.414062 28.546875 -0.75 C 27.867188 -0.0820312 26.898438 0.25 25.640625 0.25 C 23.242188 0.25 20.910156 0.0859375 18.640625 -0.234375 C 16.378906 -0.566406 14.40625 -1.039062 12.71875 -1.65625 C 11.519531 -1.132812 9.800781 -0.675781 7.5625 -0.28125 C 5.332031 0.101562 2.8125 0.28125 0 0.25 Z M 9.859375 -12.625 C 9.859375 -11.8125 10.082031 -11.050781 10.53125 -10.34375 C 10.988281 -9.632812 11.625 -8.972656 12.4375 -8.359375 C 13.601562 -8.867188 14.5 -9.507812 15.125 -10.28125 C 15.757812 -11.0625 16.078125 -11.910156 16.078125 -12.828125 C 16.078125 -13.691406 15.804688 -14.546875 15.265625 -15.390625 C 14.734375 -16.234375 14 -16.65625 13.0625 -16.65625 C 12.15625 -16.65625 11.394531 -16.265625 10.78125 -15.484375 C 10.164062 -14.710938 9.859375 -13.757812 9.859375 -12.625 Z M 12.859375 -27.421875 C 11.847656 -27.421875 10.992188 -27.757812 10.296875 -28.4375 C 9.609375 -29.113281 9.265625 -29.957031 9.265625 -30.96875 C 9.265625 -31.96875 9.609375 -32.820312 10.296875 -33.53125 C 10.992188 -34.25 11.847656 -34.609375 12.859375 -34.609375 C 13.828125 -34.609375 14.660156 -34.25 15.359375 -33.53125 C 16.054688 -32.820312 16.40625 -31.96875 16.40625 -30.96875 C 16.40625 -29.957031 16.054688 -29.113281 15.359375 -28.4375 C 14.660156 -27.757812 13.828125 -27.421875 12.859375 -27.421875 Z M 12.859375 -27.421875 "/></g></g></g><g fill="rgb(100%, 100%, 100%)" fill-opacity="1"><g transform="translate(161.90981, 294.665093)"><g><path d="M 0 0.25 L 0.484375 -6.5625 C 1.972656 -6.5625 3.039062 -6.710938 3.6875 -7.015625 C 4.332031 -7.328125 4.71875 -7.910156 4.84375 -8.765625 C 4.976562 -9.617188 5.015625 -10.875 4.953125 -12.53125 L 4.078125 -35.546875 L 10.921875 -35.546875 L 11.890625 -12.046875 C 11.960938 -10.171875 11.890625 -8.476562 11.671875 -6.96875 C 11.460938 -5.457031 10.960938 -4.164062 10.171875 -3.09375 C 9.378906 -2.03125 8.164062 -1.207031 6.53125 -0.625 C 4.894531 -0.0390625 2.71875 0.25 0 0.25 Z M 0 0.25 "/></g></g></g><g fill="rgb(100%, 100%, 100%)" fill-opacity="1"><g transform="translate(179.242973, 294.665093)"><g><path d="M 3.890625 0 L 2.859375 -35.546875 L 9.65625 -35.546875 L 10.6875 0 Z M 3.890625 0 "/></g></g></g><g fill="rgb(100%, 100%, 100%)" fill-opacity="1"><g transform="translate(195.410908, 294.665093)"><g/></g></g><g fill="rgb(100%, 100%, 100%)" fill-opacity="1"><g transform="translate(210.947697, 294.665093)"><g><path d="M 27 0.25 C 24.570312 0.25 22.5 -0.0703125 20.78125 -0.71875 C 19.070312 -1.375 17.78125 -2.476562 16.90625 -4.03125 C 14.863281 -3.644531 12.898438 -3.523438 11.015625 -3.671875 C 9.140625 -3.816406 7.472656 -4.21875 6.015625 -4.875 C 4.566406 -5.539062 3.421875 -6.492188 2.578125 -7.734375 C 1.734375 -8.984375 1.3125 -10.535156 1.3125 -12.390625 C 1.3125 -14.554688 1.898438 -16.457031 3.078125 -18.09375 C 4.265625 -19.726562 5.882812 -21.109375 7.9375 -22.234375 C 10 -23.367188 12.320312 -24.242188 14.90625 -24.859375 L 14.765625 -28.5625 L 21.609375 -28.5625 L 22.4375 -11.359375 C 22.53125 -9.359375 22.972656 -8.054688 23.765625 -7.453125 C 24.566406 -6.859375 25.804688 -6.5625 27.484375 -6.5625 C 28.710938 -6.5625 29.585938 -6.242188 30.109375 -5.609375 C 30.628906 -4.972656 30.890625 -4.1875 30.890625 -3.25 C 30.890625 -2.25 30.554688 -1.414062 29.890625 -0.75 C 29.222656 -0.0820312 28.257812 0.25 27 0.25 Z M 8.109375 -13.015625 C 8.109375 -12.265625 8.472656 -11.679688 9.203125 -11.265625 C 9.929688 -10.847656 10.859375 -10.582031 11.984375 -10.46875 C 13.117188 -10.351562 14.304688 -10.410156 15.546875 -10.640625 L 15.25 -18.109375 C 13.050781 -17.753906 11.3125 -17.109375 10.03125 -16.171875 C 8.75 -15.234375 8.109375 -14.179688 8.109375 -13.015625 Z M 9.765625 -33.375 C 8.816406 -33.375 8.007812 -33.703125 7.34375 -34.359375 C 6.6875 -35.023438 6.359375 -35.8125 6.359375 -36.71875 C 6.359375 -37.65625 6.6875 -38.460938 7.34375 -39.140625 C 8.007812 -39.828125 8.816406 -40.171875 9.765625 -40.171875 C 10.671875 -40.171875 11.445312 -39.828125 12.09375 -39.140625 C 12.738281 -38.460938 13.0625 -37.65625 13.0625 -36.71875 C 13.0625 -35.8125 12.738281 -35.023438 12.09375 -34.359375 C 11.445312 -33.703125 10.671875 -33.375 9.765625 -33.375 Z M 18.15625 -33.328125 C 17.21875 -33.328125 16.414062 -33.648438 15.75 -34.296875 C 15.09375 -34.941406 14.765625 -35.734375 14.765625 -36.671875 C 14.765625 -37.609375 15.09375 -38.414062 15.75 -39.09375 C 16.414062 -39.78125 17.21875 -40.125 18.15625 -40.125 C 19.0625 -40.125 19.835938 -39.78125 20.484375 -39.09375 C 21.140625 -38.414062 21.46875 -37.609375 21.46875 -36.671875 C 21.46875 -35.734375 21.140625 -34.941406 20.484375 -34.296875 C 19.835938 -33.648438 19.0625 -33.328125 18.15625 -33.328125 Z M 18.15625 -33.328125 "/></g></g></g><g fill="rgb(100%, 100%, 100%)" fill-opacity="1"><g transform="translate(240.855525, 294.665093)"><g><path d="M 0 0.25 L 0.484375 -6.5625 L 7.4375 -6.5625 C 10.15625 -6.5625 11.515625 -7.320312 11.515625 -8.84375 C 11.515625 -9.226562 11.3125 -9.847656 10.90625 -10.703125 C 10.5 -11.566406 9.628906 -12.613281 8.296875 -13.84375 C 7.585938 -14.488281 6.820312 -15.175781 6 -15.90625 C 5.175781 -16.632812 4.390625 -17.328125 3.640625 -17.984375 C 2.898438 -18.648438 2.285156 -19.242188 1.796875 -19.765625 C 1.304688 -20.285156 1.0625 -20.65625 1.0625 -20.875 C 1.0625 -21.59375 1.132812 -22.40625 1.28125 -23.3125 C 1.425781 -24.21875 1.695312 -24.832031 2.09375 -25.15625 C 2.832031 -25.832031 4.035156 -26.671875 5.703125 -27.671875 C 7.367188 -28.679688 9.390625 -29.785156 11.765625 -30.984375 C 14.148438 -32.179688 16.785156 -33.410156 19.671875 -34.671875 L 22.4375 -28.75 C 19.71875 -27.582031 17.222656 -26.445312 14.953125 -25.34375 C 12.691406 -24.25 10.703125 -23.195312 8.984375 -22.1875 C 11.210938 -20.34375 13 -18.679688 14.34375 -17.203125 C 15.6875 -15.734375 16.691406 -14.40625 17.359375 -13.21875 C 18.023438 -12.039062 18.460938 -10.984375 18.671875 -10.046875 C 18.878906 -9.109375 18.984375 -8.285156 18.984375 -7.578125 C 18.984375 -6.796875 18.796875 -5.957031 18.421875 -5.0625 C 18.054688 -4.175781 17.394531 -3.328125 16.4375 -2.515625 C 15.476562 -1.710938 14.140625 -1.050781 12.421875 -0.53125 C 10.710938 -0.0078125 8.515625 0.25 5.828125 0.25 Z M 0 0.25 "/></g></g></g><g fill="rgb(100%, 100%, 100%)" fill-opacity="1"><g transform="translate(265.811169, 294.665093)"><g/></g></g><g fill="rgb(100%, 100%, 100%)" fill-opacity="1"><g transform="translate(281.347943, 294.665093)"><g><path d="M 0.78125 11.21875 L -1.703125 5.203125 C 0.597656 4.390625 2.640625 3.441406 4.421875 2.359375 C 6.203125 1.273438 7.601562 0.03125 8.625 -1.375 C 9.644531 -2.789062 10.15625 -4.375 10.15625 -6.125 C 10.15625 -7.476562 9.84375 -8.960938 9.21875 -10.578125 C 8.601562 -12.203125 7.863281 -13.859375 7 -15.546875 L 13.359375 -18.59375 C 13.910156 -17.59375 14.410156 -16.515625 14.859375 -15.359375 C 15.316406 -14.210938 15.691406 -13.1875 15.984375 -12.28125 C 16.273438 -11.375 16.46875 -10.757812 16.5625 -10.4375 C 17.007812 -8.882812 17.628906 -7.847656 18.421875 -7.328125 C 19.222656 -6.816406 20.515625 -6.5625 22.296875 -6.5625 C 23.492188 -6.5625 24.363281 -6.242188 24.90625 -5.609375 C 25.457031 -4.972656 25.734375 -4.1875 25.734375 -3.25 C 25.734375 -2.25 25.394531 -1.414062 24.71875 -0.75 C 24.039062 -0.0820312 23.066406 0.25 21.796875 0.25 C 19.335938 0.25 17.460938 -0.414062 16.171875 -1.75 C 15.617188 0.257812 14.570312 2.113281 13.03125 3.8125 C 11.5 5.507812 9.664062 6.988281 7.53125 8.25 C 5.394531 9.519531 3.144531 10.507812 0.78125 11.21875 Z M 0.78125 11.21875 "/></g></g></g><g fill="rgb(100%, 100%, 100%)" fill-opacity="1"><g transform="translate(306.109385, 294.665093)"><g><path d="M 0 0.25 L 0.484375 -6.5625 C 1.554688 -6.5625 2.429688 -6.648438 3.109375 -6.828125 C 3.785156 -7.003906 4.34375 -7.40625 4.78125 -8.03125 C 5.21875 -8.664062 5.601562 -9.625 5.9375 -10.90625 C 6.28125 -12.1875 6.664062 -13.925781 7.09375 -16.125 L 13.40625 -14.953125 C 13.269531 -14.242188 13.097656 -13.351562 12.890625 -12.28125 C 12.679688 -11.21875 12.578125 -10.296875 12.578125 -9.515625 C 12.578125 -8.609375 12.867188 -7.890625 13.453125 -7.359375 C 14.035156 -6.828125 15.132812 -6.5625 16.75 -6.5625 C 17.5625 -6.5625 18.265625 -6.648438 18.859375 -6.828125 C 19.460938 -7.003906 19.984375 -7.40625 20.421875 -8.03125 C 20.859375 -8.664062 21.242188 -9.65625 21.578125 -11 C 21.921875 -12.34375 22.253906 -14.164062 22.578125 -16.46875 L 28.984375 -15.4375 C 28.796875 -14.3125 28.601562 -13.113281 28.40625 -11.84375 C 28.21875 -10.582031 28.125 -9.628906 28.125 -8.984375 C 28.125 -8.367188 28.421875 -7.8125 29.015625 -7.3125 C 29.617188 -6.8125 30.84375 -6.5625 32.6875 -6.5625 C 33.976562 -6.5625 35.003906 -6.816406 35.765625 -7.328125 C 36.523438 -7.847656 36.90625 -8.753906 36.90625 -10.046875 C 36.90625 -11.242188 36.628906 -12.8125 36.078125 -14.75 C 35.523438 -16.695312 34.878906 -18.738281 34.140625 -20.875 L 40.984375 -22.921875 C 41.503906 -21.523438 41.96875 -20.039062 42.375 -18.46875 C 42.78125 -16.90625 43.101562 -15.378906 43.34375 -13.890625 C 43.582031 -12.398438 43.703125 -11.117188 43.703125 -10.046875 C 43.703125 -6.710938 42.722656 -4.160156 40.765625 -2.390625 C 38.804688 -0.628906 36.257812 0.25 33.125 0.25 C 30.851562 0.25 29.085938 -0.015625 27.828125 -0.546875 C 26.566406 -1.085938 25.660156 -2.054688 25.109375 -3.453125 C 24.460938 -2.316406 23.757812 -1.488281 23 -0.96875 C 22.238281 -0.445312 21.335938 -0.113281 20.296875 0.03125 C 19.265625 0.175781 18.035156 0.25 16.609375 0.25 C 15.734375 0.25 14.859375 0.175781 13.984375 0.03125 C 13.109375 -0.113281 12.273438 -0.421875 11.484375 -0.890625 C 10.691406 -1.367188 10.003906 -2.125 9.421875 -3.15625 C 8.316406 -1.664062 6.972656 -0.722656 5.390625 -0.328125 C 3.804688 0.0546875 2.007812 0.25 0 0.25 Z M 25.28125 -29.828125 C 24.4375 -29.828125 23.722656 -30.132812 23.140625 -30.75 C 22.566406 -31.363281 22.28125 -32.09375 22.28125 -32.9375 C 22.28125 -33.78125 22.566406 -34.492188 23.140625 -35.078125 C 23.722656 -35.660156 24.4375 -35.953125 25.28125 -35.953125 C 26.125 -35.953125 26.835938 -35.660156 27.421875 -35.078125 C 28.003906 -34.492188 28.296875 -33.78125 28.296875 -32.9375 C 28.296875 -32.09375 28.003906 -31.363281 27.421875 -30.75 C 26.835938 -30.132812 26.125 -29.828125 25.28125 -29.828125 Z M 21.40625 -23.421875 C 20.5625 -23.421875 19.847656 -23.726562 19.265625 -24.34375 C 18.679688 -24.957031 18.390625 -25.6875 18.390625 -26.53125 C 18.390625 -27.363281 18.679688 -28.070312 19.265625 -28.65625 C 19.847656 -29.238281 20.5625 -29.53125 21.40625 -29.53125 C 22.238281 -29.53125 22.945312 -29.238281 23.53125 -28.65625 C 24.113281 -28.070312 24.40625 -27.363281 24.40625 -26.53125 C 24.40625 -25.6875 24.113281 -24.957031 23.53125 -24.34375 C 22.945312 -23.726562 22.238281 -23.421875 21.40625 -23.421875 Z M 28.921875 -23.421875 C 28.117188 -23.421875 27.414062 -23.726562 26.8125 -24.34375 C 26.21875 -24.957031 25.921875 -25.6875 25.921875 -26.53125 C 25.921875 -27.363281 26.21875 -28.070312 26.8125 -28.65625 C 27.414062 -29.238281 28.117188 -29.53125 28.921875 -29.53125 C 29.765625 -29.53125 30.476562 -29.238281 31.0625 -28.65625 C 31.644531 -28.070312 31.9375 -27.363281 31.9375 -26.53125 C 31.9375 -25.6875 31.644531 -24.957031 31.0625 -24.34375 C 30.476562 -23.726562 29.765625 -23.421875 28.921875 -23.421875 Z M 28.921875 -23.421875 "/></g></g></g><g fill="rgb(52.159119%, 79.998779%, 100%)" fill-opacity="1"><g transform="translate(12.18497, 349.299968)"><g><path d="M 11.875 0.59375 C 9.1875 0.59375 7.039062 0.320312 5.4375 -0.21875 C 3.832031 -0.757812 2.671875 -1.503906 1.953125 -2.453125 C 1.242188 -3.410156 0.890625 -4.5 0.890625 -5.71875 C 0.890625 -6.59375 1 -7.488281 1.21875 -8.40625 C 1.445312 -9.332031 1.664062 -10.148438 1.875 -10.859375 L 5.375 -10.046875 C 5.25 -9.523438 5.125 -8.96875 5 -8.375 C 4.875 -7.789062 4.8125 -7.273438 4.8125 -6.828125 C 4.8125 -6.117188 5.054688 -5.503906 5.546875 -4.984375 C 6.046875 -4.460938 6.863281 -4.054688 8 -3.765625 C 9.144531 -3.472656 10.675781 -3.328125 12.59375 -3.328125 L 12.59375 -3.25 L 12.625 -3.328125 C 16.25 -3.328125 18.941406 -3.53125 20.703125 -3.9375 C 22.472656 -4.351562 23.359375 -5.078125 23.359375 -6.109375 C 23.359375 -6.773438 23.242188 -7.570312 23.015625 -8.5 C 22.796875 -9.4375 22.503906 -10.398438 22.140625 -11.390625 L 25.8125 -12.453125 C 26.0625 -11.828125 26.296875 -11.132812 26.515625 -10.375 C 26.742188 -9.613281 26.925781 -8.851562 27.0625 -8.09375 C 27.195312 -7.34375 27.265625 -6.640625 27.265625 -5.984375 C 27.265625 -4.828125 27.015625 -3.832031 26.515625 -3 C 26.015625 -2.175781 25.179688 -1.5 24.015625 -0.96875 C 22.847656 -0.4375 21.273438 -0.046875 19.296875 0.203125 C 17.316406 0.460938 14.851562 0.59375 11.90625 0.59375 L 11.90625 0.5625 Z M 11.75 -12.203125 C 11.207031 -12.203125 10.742188 -12.394531 10.359375 -12.78125 C 9.972656 -13.164062 9.78125 -13.617188 9.78125 -14.140625 C 9.78125 -14.679688 9.972656 -15.144531 10.359375 -15.53125 C 10.742188 -15.925781 11.207031 -16.125 11.75 -16.125 C 12.269531 -16.125 12.710938 -15.925781 13.078125 -15.53125 C 13.453125 -15.144531 13.640625 -14.679688 13.640625 -14.140625 C 13.640625 -13.617188 13.453125 -13.164062 13.078125 -12.78125 C 12.710938 -12.394531 12.269531 -12.203125 11.75 -12.203125 Z M 16.59375 -12.171875 C 16.050781 -12.171875 15.585938 -12.359375 15.203125 -12.734375 C 14.816406 -13.109375 14.625 -13.566406 14.625 -14.109375 C 14.625 -14.648438 14.816406 -15.113281 15.203125 -15.5 C 15.585938 -15.894531 16.050781 -16.09375 16.59375 -16.09375 C 17.113281 -16.09375 17.554688 -15.894531 17.921875 -15.5 C 18.296875 -15.113281 18.484375 -14.648438 18.484375 -14.109375 C 18.484375 -13.566406 18.296875 -13.109375 17.921875 -12.734375 C 17.554688 -12.359375 17.113281 -12.171875 16.59375 -12.171875 Z M 16.59375 -12.171875 "/></g></g></g><g fill="rgb(52.159119%, 79.998779%, 100%)" fill-opacity="1"><g transform="translate(46.145067, 349.299968)"><g><path d="M 8.875 0.140625 C 7.132812 0.140625 5.789062 -0.0351562 4.84375 -0.390625 C 3.90625 -0.742188 3.242188 -1.296875 2.859375 -2.046875 C 2.484375 -2.804688 2.273438 -3.765625 2.234375 -4.921875 L 1.65625 -20.5 L 5.578125 -20.5 L 6.15625 -6.796875 C 6.195312 -5.941406 6.289062 -5.300781 6.4375 -4.875 C 6.582031 -4.445312 6.859375 -4.15625 7.265625 -4 C 7.679688 -3.851562 8.3125 -3.78125 9.15625 -3.78125 C 9.84375 -3.78125 10.34375 -3.597656 10.65625 -3.234375 C 10.976562 -2.867188 11.140625 -2.414062 11.140625 -1.875 C 11.140625 -1.300781 10.941406 -0.820312 10.546875 -0.4375 C 10.160156 -0.0507812 9.601562 0.140625 8.875 0.140625 Z M 8.875 0.140625 "/></g></g></g><g fill="rgb(52.159119%, 79.998779%, 100%)" fill-opacity="1"><g transform="translate(60.339857, 349.299968)"><g><path d="M 0 0.140625 L 0.28125 -3.75 C 0.84375 -3.726562 1.367188 -3.734375 1.859375 -3.765625 C 2.359375 -3.796875 2.820312 -3.828125 3.25 -3.859375 C 2.832031 -4.347656 2.488281 -4.894531 2.21875 -5.5 C 1.945312 -6.101562 1.8125 -6.789062 1.8125 -7.5625 C 1.8125 -8.71875 2.101562 -9.726562 2.6875 -10.59375 C 3.269531 -11.46875 4.003906 -12.144531 4.890625 -12.625 C 5.773438 -13.113281 6.679688 -13.359375 7.609375 -13.359375 C 8.734375 -13.359375 9.707031 -13.09375 10.53125 -12.5625 C 11.351562 -12.039062 11.988281 -11.351562 12.4375 -10.5 C 12.894531 -9.65625 13.125 -8.75 13.125 -7.78125 C 13.125 -7 12.992188 -6.28125 12.734375 -5.625 C 12.472656 -4.96875 12.128906 -4.390625 11.703125 -3.890625 C 12.265625 -3.859375 12.828125 -3.832031 13.390625 -3.8125 C 13.960938 -3.789062 14.519531 -3.78125 15.0625 -3.78125 C 15.769531 -3.78125 16.273438 -3.597656 16.578125 -3.234375 C 16.890625 -2.867188 17.046875 -2.414062 17.046875 -1.875 C 17.046875 -1.300781 16.847656 -0.820312 16.453125 -0.4375 C 16.066406 -0.0507812 15.507812 0.140625 14.78125 0.140625 C 13.40625 0.140625 12.0625 0.046875 10.75 -0.140625 C 9.445312 -0.328125 8.3125 -0.597656 7.34375 -0.953125 C 6.644531 -0.648438 5.648438 -0.382812 4.359375 -0.15625 C 3.078125 0.0625 1.625 0.160156 0 0.140625 Z M 5.6875 -7.28125 C 5.6875 -6.8125 5.816406 -6.367188 6.078125 -5.953125 C 6.335938 -5.546875 6.703125 -5.164062 7.171875 -4.8125 C 7.835938 -5.113281 8.351562 -5.488281 8.71875 -5.9375 C 9.082031 -6.382812 9.265625 -6.867188 9.265625 -7.390625 C 9.265625 -7.890625 9.109375 -8.382812 8.796875 -8.875 C 8.492188 -9.363281 8.070312 -9.609375 7.53125 -9.609375 C 7.007812 -9.609375 6.570312 -9.382812 6.21875 -8.9375 C 5.863281 -8.488281 5.6875 -7.9375 5.6875 -7.28125 Z M 7.796875 -16.234375 C 7.222656 -16.234375 6.734375 -16.425781 6.328125 -16.8125 C 5.929688 -17.207031 5.734375 -17.695312 5.734375 -18.28125 C 5.734375 -18.851562 5.929688 -19.34375 6.328125 -19.75 C 6.734375 -20.164062 7.222656 -20.375 7.796875 -20.375 C 8.359375 -20.375 8.835938 -20.164062 9.234375 -19.75 C 9.640625 -19.34375 9.84375 -18.851562 9.84375 -18.28125 C 9.84375 -17.695312 9.640625 -17.207031 9.234375 -16.8125 C 8.835938 -16.425781 8.359375 -16.234375 7.796875 -16.234375 Z M 7.796875 -16.234375 "/></g></g></g><g fill="rgb(52.159119%, 79.998779%, 100%)" fill-opacity="1"><g transform="translate(80.441849, 349.299968)"><g><path d="M 0 0.140625 L 0.28125 -3.78125 C 0.945312 -3.78125 1.523438 -3.84375 2.015625 -3.96875 C 2.503906 -4.101562 2.914062 -4.367188 3.25 -4.765625 C 3.582031 -5.171875 3.863281 -5.765625 4.09375 -6.546875 C 4.332031 -7.335938 4.546875 -8.382812 4.734375 -9.6875 L 8.40625 -9.078125 C 8.320312 -8.640625 8.234375 -8.125 8.140625 -7.53125 C 8.054688 -6.9375 8.015625 -6.382812 8.015625 -5.875 C 8.015625 -5.207031 8.289062 -4.691406 8.84375 -4.328125 C 9.40625 -3.960938 10.367188 -3.78125 11.734375 -3.78125 C 12.421875 -3.78125 12.914062 -3.597656 13.21875 -3.234375 C 13.53125 -2.867188 13.6875 -2.414062 13.6875 -1.875 C 13.6875 -1.300781 13.492188 -0.820312 13.109375 -0.4375 C 12.734375 -0.0507812 12.179688 0.140625 11.453125 0.140625 C 10.140625 0.140625 9.019531 -0.0234375 8.09375 -0.359375 C 7.175781 -0.703125 6.503906 -1.300781 6.078125 -2.15625 C 5.566406 -1.476562 4.972656 -0.976562 4.296875 -0.65625 C 3.617188 -0.332031 2.910156 -0.117188 2.171875 -0.015625 C 1.429688 0.0859375 0.707031 0.140625 0 0.140625 Z M 7.46875 6.5 C 6.925781 6.5 6.460938 6.3125 6.078125 5.9375 C 5.703125 5.5625 5.515625 5.101562 5.515625 4.5625 C 5.515625 4.019531 5.703125 3.550781 6.078125 3.15625 C 6.460938 2.769531 6.925781 2.578125 7.46875 2.578125 C 7.988281 2.578125 8.4375 2.769531 8.8125 3.15625 C 9.1875 3.550781 9.375 4.019531 9.375 4.5625 C 9.375 5.101562 9.1875 5.5625 8.8125 5.9375 C 8.4375 6.3125 7.988281 6.5 7.46875 6.5 Z M 2.625 6.5 C 2.082031 6.5 1.617188 6.3125 1.234375 5.9375 C 0.847656 5.5625 0.65625 5.101562 0.65625 4.5625 C 0.65625 4.019531 0.847656 3.550781 1.234375 3.15625 C 1.617188 2.769531 2.082031 2.578125 2.625 2.578125 C 3.144531 2.578125 3.59375 2.769531 3.96875 3.15625 C 4.34375 3.550781 4.53125 4.019531 4.53125 4.5625 C 4.53125 5.101562 4.34375 5.5625 3.96875 5.9375 C 3.59375 6.3125 3.144531 6.5 2.625 6.5 Z M 2.625 6.5 "/></g></g></g><g fill="rgb(52.159119%, 79.998779%, 100%)" fill-opacity="1"><g transform="translate(97.184303, 349.299968)"><g><path d="M 0 0.140625 L 0.28125 -3.78125 L 4.203125 -3.78125 C 5.171875 -3.78125 5.8125 -3.863281 6.125 -4.03125 C 6.445312 -4.195312 6.609375 -4.457031 6.609375 -4.8125 C 6.609375 -5.226562 6.40625 -5.707031 6 -6.25 C 5.601562 -6.800781 5.101562 -7.375 4.5 -7.96875 C 3.90625 -8.570312 3.304688 -9.15625 2.703125 -9.71875 C 2.109375 -10.28125 1.609375 -10.769531 1.203125 -11.1875 C 0.804688 -11.601562 0.609375 -11.90625 0.609375 -12.09375 C 0.609375 -12.863281 0.671875 -13.414062 0.796875 -13.75 C 0.921875 -14.082031 1.082031 -14.351562 1.28125 -14.5625 C 1.71875 -14.988281 2.414062 -15.484375 3.375 -16.046875 C 4.332031 -16.609375 5.492188 -17.21875 6.859375 -17.875 C 8.222656 -18.539062 9.71875 -19.242188 11.34375 -19.984375 L 12.9375 -16.578125 C 11.082031 -15.753906 9.519531 -15.035156 8.25 -14.421875 C 6.988281 -13.804688 5.921875 -13.242188 5.046875 -12.734375 C 6.273438 -11.617188 7.335938 -10.546875 8.234375 -9.515625 C 9.128906 -8.492188 9.976562 -7.328125 10.78125 -6.015625 C 11.175781 -5.367188 11.597656 -4.882812 12.046875 -4.5625 C 12.492188 -4.25 12.925781 -4.039062 13.34375 -3.9375 C 13.757812 -3.832031 14.132812 -3.78125 14.46875 -3.78125 C 15.164062 -3.78125 15.671875 -3.597656 15.984375 -3.234375 C 16.304688 -2.867188 16.46875 -2.414062 16.46875 -1.875 C 16.46875 -1.300781 16.269531 -0.820312 15.875 -0.4375 C 15.476562 -0.0507812 14.921875 0.140625 14.203125 0.140625 C 13.472656 0.140625 12.671875 -0.00390625 11.796875 -0.296875 C 10.929688 -0.597656 10.203125 -1.125 9.609375 -1.875 C 9.003906 -1.144531 8.238281 -0.625 7.3125 -0.3125 C 6.394531 -0.0078125 5.265625 0.140625 3.921875 0.140625 Z M 0 0.140625 "/></g></g></g><g fill="rgb(52.159119%, 79.998779%, 100%)" fill-opacity="1"><g transform="translate(116.698372, 349.299968)"><g><path d="M 0 0.140625 L 0.28125 -3.78125 C 0.726562 -3.78125 1.078125 -3.875 1.328125 -4.0625 C 1.578125 -4.25 1.820312 -4.570312 2.0625 -5.03125 C 2.3125 -5.488281 2.648438 -6.125 3.078125 -6.9375 C 4.015625 -8.71875 5.007812 -9.953125 6.0625 -10.640625 C 7.113281 -11.328125 8.132812 -11.671875 9.125 -11.671875 C 10.15625 -11.671875 11.101562 -11.328125 11.96875 -10.640625 C 12.832031 -9.960938 13.648438 -8.710938 14.421875 -6.890625 C 14.960938 -5.617188 15.503906 -4.78125 16.046875 -4.375 C 16.585938 -3.976562 17.15625 -3.78125 17.75 -3.78125 C 18.457031 -3.78125 18.960938 -3.597656 19.265625 -3.234375 C 19.566406 -2.867188 19.71875 -2.414062 19.71875 -1.875 C 19.71875 -1.300781 19.519531 -0.820312 19.125 -0.4375 C 18.726562 -0.0507812 18.175781 0.140625 17.46875 0.140625 C 16.644531 0.140625 15.890625 0.0195312 15.203125 -0.21875 C 14.515625 -0.46875 13.945312 -0.820312 13.5 -1.28125 C 13.175781 -0.820312 12.738281 -0.410156 12.1875 -0.046875 C 11.644531 0.316406 10.976562 0.5 10.1875 0.5 C 9.71875 0.5 9.171875 0.410156 8.546875 0.234375 C 7.921875 0.0546875 7.273438 -0.238281 6.609375 -0.65625 C 5.953125 -1.070312 5.34375 -1.644531 4.78125 -2.375 C 4.238281 -1.382812 3.613281 -0.71875 2.90625 -0.375 C 2.195312 -0.03125 1.226562 0.140625 0 0.140625 Z M 6.40625 -5.6875 C 6.757812 -5.101562 7.269531 -4.570312 7.9375 -4.09375 C 8.613281 -3.625 9.316406 -3.390625 10.046875 -3.390625 C 10.421875 -3.390625 10.726562 -3.53125 10.96875 -3.8125 C 11.21875 -4.101562 11.226562 -4.539062 11 -5.125 C 10.875 -5.4375 10.691406 -5.804688 10.453125 -6.234375 C 10.222656 -6.671875 9.960938 -7.039062 9.671875 -7.34375 C 9.378906 -7.65625 9.066406 -7.8125 8.734375 -7.8125 C 8.359375 -7.8125 7.972656 -7.640625 7.578125 -7.296875 C 7.191406 -6.960938 6.800781 -6.425781 6.40625 -5.6875 Z M 6.40625 -5.6875 "/></g></g></g><g fill="rgb(52.159119%, 79.998779%, 100%)" fill-opacity="1"><g transform="translate(139.460005, 349.299968)"><g><path d="M 0 0.140625 L 0.28125 -3.78125 C 1.132812 -3.78125 1.75 -3.867188 2.125 -4.046875 C 2.5 -4.222656 2.722656 -4.554688 2.796875 -5.046875 C 2.867188 -5.546875 2.890625 -6.269531 2.859375 -7.21875 L 2.359375 -20.5 L 6.296875 -20.5 L 6.859375 -6.9375 C 6.898438 -5.851562 6.859375 -4.878906 6.734375 -4.015625 C 6.609375 -3.148438 6.316406 -2.410156 5.859375 -1.796875 C 5.410156 -1.179688 4.710938 -0.703125 3.765625 -0.359375 C 2.828125 -0.0234375 1.570312 0.140625 0 0.140625 Z M 0 0.140625 "/></g></g></g><g fill="rgb(52.159119%, 79.998779%, 100%)" fill-opacity="1"><g transform="translate(153.066881, 349.299968)"><g><path d="M 2.234375 0 L 1.65625 -20.5 L 5.578125 -20.5 L 6.15625 0 Z M 2.234375 0 "/></g></g></g><g fill="rgb(52.159119%, 79.998779%, 100%)" fill-opacity="1"><g transform="translate(178.572864, 349.299968)"><g><path d="M 11.875 0.59375 C 9.1875 0.59375 7.039062 0.320312 5.4375 -0.21875 C 3.832031 -0.757812 2.671875 -1.503906 1.953125 -2.453125 C 1.242188 -3.410156 0.890625 -4.5 0.890625 -5.71875 C 0.890625 -6.59375 1 -7.488281 1.21875 -8.40625 C 1.445312 -9.332031 1.664062 -10.148438 1.875 -10.859375 L 5.375 -10.046875 C 5.25 -9.523438 5.125 -8.96875 5 -8.375 C 4.875 -7.789062 4.8125 -7.273438 4.8125 -6.828125 C 4.8125 -6.117188 5.054688 -5.503906 5.546875 -4.984375 C 6.046875 -4.460938 6.863281 -4.054688 8 -3.765625 C 9.144531 -3.472656 10.675781 -3.328125 12.59375 -3.328125 L 12.59375 -3.25 L 12.625 -3.328125 C 13.96875 -3.328125 15.257812 -3.390625 16.5 -3.515625 C 17.75 -3.648438 18.9375 -3.914062 20.0625 -4.3125 C 21.1875 -4.707031 22.238281 -5.285156 23.21875 -6.046875 C 24.207031 -6.816406 25.109375 -7.84375 25.921875 -9.125 L 29.0625 -7.703125 C 28.945312 -7.347656 28.851562 -7 28.78125 -6.65625 C 28.707031 -6.320312 28.671875 -6.0625 28.671875 -5.875 C 28.671875 -5.226562 28.921875 -4.71875 29.421875 -4.34375 C 29.929688 -3.96875 30.875 -3.78125 32.25 -3.78125 C 32.957031 -3.78125 33.460938 -3.597656 33.765625 -3.234375 C 34.066406 -2.867188 34.21875 -2.414062 34.21875 -1.875 C 34.21875 -1.300781 34.023438 -0.820312 33.640625 -0.4375 C 33.253906 -0.0507812 32.695312 0.140625 31.96875 0.140625 C 30.289062 0.140625 28.914062 -0.148438 27.84375 -0.734375 C 26.769531 -1.328125 26.054688 -2.109375 25.703125 -3.078125 C 24.265625 -1.804688 22.347656 -0.875 19.953125 -0.28125 C 17.554688 0.300781 14.875 0.59375 11.90625 0.59375 L 11.90625 0.5625 Z M 13.6875 7.53125 C 13.144531 7.53125 12.679688 7.34375 12.296875 6.96875 C 11.921875 6.59375 11.734375 6.132812 11.734375 5.59375 C 11.734375 5.050781 11.921875 4.578125 12.296875 4.171875 C 12.679688 3.773438 13.144531 3.578125 13.6875 3.578125 C 14.207031 3.578125 14.660156 3.773438 15.046875 4.171875 C 15.441406 4.578125 15.640625 5.050781 15.640625 5.59375 C 15.640625 6.132812 15.441406 6.59375 15.046875 6.96875 C 14.660156 7.34375 14.207031 7.53125 13.6875 7.53125 Z M 13.6875 7.53125 "/></g></g></g><g fill="rgb(52.159119%, 79.998779%, 100%)" fill-opacity="1"><g transform="translate(215.836507, 349.299968)"><g><path d="M 0 0.140625 L 0.28125 -3.78125 C 0.945312 -3.78125 1.523438 -3.84375 2.015625 -3.96875 C 2.503906 -4.101562 2.914062 -4.367188 3.25 -4.765625 C 3.582031 -5.171875 3.863281 -5.765625 4.09375 -6.546875 C 4.332031 -7.335938 4.546875 -8.382812 4.734375 -9.6875 L 8.40625 -9.078125 C 8.320312 -8.640625 8.234375 -8.125 8.140625 -7.53125 C 8.054688 -6.9375 8.015625 -6.382812 8.015625 -5.875 C 8.015625 -5.207031 8.289062 -4.691406 8.84375 -4.328125 C 9.40625 -3.960938 10.367188 -3.78125 11.734375 -3.78125 C 12.421875 -3.78125 12.914062 -3.597656 13.21875 -3.234375 C 13.53125 -2.867188 13.6875 -2.414062 13.6875 -1.875 C 13.6875 -1.300781 13.492188 -0.820312 13.109375 -0.4375 C 12.734375 -0.0507812 12.179688 0.140625 11.453125 0.140625 C 10.140625 0.140625 9.019531 -0.0234375 8.09375 -0.359375 C 7.175781 -0.703125 6.503906 -1.300781 6.078125 -2.15625 C 5.566406 -1.476562 4.972656 -0.976562 4.296875 -0.65625 C 3.617188 -0.332031 2.910156 -0.117188 2.171875 -0.015625 C 1.429688 0.0859375 0.707031 0.140625 0 0.140625 Z M 7.46875 6.5 C 6.925781 6.5 6.460938 6.3125 6.078125 5.9375 C 5.703125 5.5625 5.515625 5.101562 5.515625 4.5625 C 5.515625 4.019531 5.703125 3.550781 6.078125 3.15625 C 6.460938 2.769531 6.925781 2.578125 7.46875 2.578125 C 7.988281 2.578125 8.4375 2.769531 8.8125 3.15625 C 9.1875 3.550781 9.375 4.019531 9.375 4.5625 C 9.375 5.101562 9.1875 5.5625 8.8125 5.9375 C 8.4375 6.3125 7.988281 6.5 7.46875 6.5 Z M 2.625 6.5 C 2.082031 6.5 1.617188 6.3125 1.234375 5.9375 C 0.847656 5.5625 0.65625 5.101562 0.65625 4.5625 C 0.65625 4.019531 0.847656 3.550781 1.234375 3.15625 C 1.617188 2.769531 2.082031 2.578125 2.625 2.578125 C 3.144531 2.578125 3.59375 2.769531 3.96875 3.15625 C 4.34375 3.550781 4.53125 4.019531 4.53125 4.5625 C 4.53125 5.101562 4.34375 5.5625 3.96875 5.9375 C 3.59375 6.3125 3.144531 6.5 2.625 6.5 Z M 2.625 6.5 "/></g></g></g><g fill="rgb(52.159119%, 79.998779%, 100%)" fill-opacity="1"><g transform="translate(232.57896, 349.299968)"><g><path d="M 0 0.140625 L 0.28125 -3.78125 L 4.28125 -3.78125 C 5.851562 -3.78125 6.640625 -4.21875 6.640625 -5.09375 C 6.640625 -5.320312 6.519531 -5.679688 6.28125 -6.171875 C 6.050781 -6.671875 5.550781 -7.273438 4.78125 -7.984375 C 4.375 -8.359375 3.929688 -8.753906 3.453125 -9.171875 C 2.984375 -9.585938 2.53125 -9.988281 2.09375 -10.375 C 1.664062 -10.757812 1.3125 -11.097656 1.03125 -11.390625 C 0.75 -11.691406 0.609375 -11.910156 0.609375 -12.046875 C 0.609375 -12.453125 0.648438 -12.914062 0.734375 -13.4375 C 0.828125 -13.957031 0.984375 -14.3125 1.203125 -14.5 C 1.628906 -14.894531 2.320312 -15.378906 3.28125 -15.953125 C 4.25 -16.535156 5.414062 -17.171875 6.78125 -17.859375 C 8.15625 -18.554688 9.675781 -19.265625 11.34375 -19.984375 L 12.9375 -16.578125 C 11.363281 -15.898438 9.921875 -15.242188 8.609375 -14.609375 C 7.304688 -13.972656 6.164062 -13.367188 5.1875 -12.796875 C 6.46875 -11.734375 7.492188 -10.773438 8.265625 -9.921875 C 9.046875 -9.078125 9.625 -8.3125 10 -7.625 C 10.382812 -6.945312 10.640625 -6.335938 10.765625 -5.796875 C 10.890625 -5.253906 10.953125 -4.78125 10.953125 -4.375 C 10.953125 -3.925781 10.84375 -3.441406 10.625 -2.921875 C 10.40625 -2.410156 10.019531 -1.921875 9.46875 -1.453125 C 8.925781 -0.984375 8.160156 -0.597656 7.171875 -0.296875 C 6.179688 -0.00390625 4.910156 0.140625 3.359375 0.140625 Z M 0 0.140625 "/></g></g></g><g fill="rgb(52.159119%, 79.998779%, 100%)" fill-opacity="1"><g transform="translate(250.581225, 349.299968)"><g><path d="M 0.453125 6.46875 L -0.984375 3 C 0.347656 2.53125 1.523438 1.984375 2.546875 1.359375 C 3.578125 0.734375 4.382812 0.015625 4.96875 -0.796875 C 5.5625 -1.609375 5.859375 -2.519531 5.859375 -3.53125 C 5.859375 -4.3125 5.675781 -5.164062 5.3125 -6.09375 C 4.957031 -7.03125 4.53125 -7.984375 4.03125 -8.953125 L 7.703125 -10.71875 C 8.015625 -10.144531 8.300781 -9.523438 8.5625 -8.859375 C 8.820312 -8.203125 9.035156 -7.609375 9.203125 -7.078125 C 9.378906 -6.554688 9.492188 -6.203125 9.546875 -6.015625 C 9.804688 -5.117188 10.164062 -4.519531 10.625 -4.21875 C 11.082031 -3.925781 11.828125 -3.78125 12.859375 -3.78125 C 13.546875 -3.78125 14.046875 -3.597656 14.359375 -3.234375 C 14.679688 -2.867188 14.84375 -2.414062 14.84375 -1.875 C 14.84375 -1.300781 14.644531 -0.820312 14.25 -0.4375 C 13.851562 -0.0507812 13.296875 0.140625 12.578125 0.140625 C 11.148438 0.140625 10.066406 -0.242188 9.328125 -1.015625 C 9.003906 0.148438 8.398438 1.222656 7.515625 2.203125 C 6.628906 3.179688 5.566406 4.035156 4.328125 4.765625 C 3.097656 5.492188 1.804688 6.0625 0.453125 6.46875 Z M 0.453125 6.46875 "/></g></g></g><g fill="rgb(52.159119%, 79.998779%, 100%)" fill-opacity="1"><g transform="translate(268.47152, 349.299968)"><g><path d="M 0 0.140625 L 0.28125 -3.78125 C 1.394531 -3.78125 2.25 -3.832031 2.84375 -3.9375 C 3.445312 -4.050781 3.863281 -4.265625 4.09375 -4.578125 C 4.332031 -4.890625 4.453125 -5.332031 4.453125 -5.90625 C 4.453125 -6.425781 4.378906 -7.050781 4.234375 -7.78125 C 4.097656 -8.507812 3.914062 -9.257812 3.6875 -10.03125 C 3.46875 -10.8125 3.25 -11.535156 3.03125 -12.203125 L 6.890625 -13.265625 C 7.109375 -12.628906 7.332031 -11.890625 7.5625 -11.046875 C 7.800781 -10.210938 7.992188 -9.347656 8.140625 -8.453125 C 8.296875 -7.554688 8.375 -6.707031 8.375 -5.90625 C 8.375 -4.632812 8.164062 -3.601562 7.75 -2.8125 C 7.34375 -2.019531 6.769531 -1.410156 6.03125 -0.984375 C 5.289062 -0.554688 4.40625 -0.257812 3.375 -0.09375 C 2.351562 0.0625 1.226562 0.140625 0 0.140625 Z M 2.75 -15.203125 C 2.207031 -15.203125 1.742188 -15.394531 1.359375 -15.78125 C 0.972656 -16.164062 0.78125 -16.617188 0.78125 -17.140625 C 0.78125 -17.679688 0.972656 -18.144531 1.359375 -18.53125 C 1.742188 -18.925781 2.207031 -19.125 2.75 -19.125 C 3.269531 -19.125 3.710938 -18.925781 4.078125 -18.53125 C 4.453125 -18.144531 4.640625 -17.679688 4.640625 -17.140625 C 4.640625 -16.617188 4.453125 -16.164062 4.078125 -15.78125 C 3.710938 -15.394531 3.269531 -15.203125 2.75 -15.203125 Z M 7.59375 -15.171875 C 7.050781 -15.171875 6.585938 -15.359375 6.203125 -15.734375 C 5.816406 -16.109375 5.625 -16.566406 5.625 -17.109375 C 5.625 -17.648438 5.816406 -18.113281 6.203125 -18.5 C 6.585938 -18.894531 7.050781 -19.09375 7.59375 -19.09375 C 8.113281 -19.09375 8.554688 -18.894531 8.921875 -18.5 C 9.296875 -18.113281 9.484375 -17.648438 9.484375 -17.109375 C 9.484375 -16.566406 9.296875 -16.109375 8.921875 -15.734375 C 8.554688 -15.359375 8.113281 -15.171875 7.59375 -15.171875 Z M 7.59375 -15.171875 "/></g></g></g><g fill="rgb(52.159119%, 79.998779%, 100%)" fill-opacity="1"><g transform="translate(283.814155, 349.299968)"><g><path d="M 1.59375 6.4375 L 0.78125 2.515625 C 2.570312 2.296875 4.066406 2.003906 5.265625 1.640625 C 6.472656 1.273438 7.367188 0.660156 7.953125 -0.203125 C 7.691406 -0.109375 7.40625 -0.0351562 7.09375 0.015625 C 6.789062 0.078125 6.460938 0.109375 6.109375 0.109375 C 5.210938 0.109375 4.40625 -0.03125 3.6875 -0.3125 C 2.96875 -0.601562 2.390625 -1.054688 1.953125 -1.671875 C 1.523438 -2.296875 1.3125 -3.101562 1.3125 -4.09375 C 1.3125 -5 1.460938 -5.878906 1.765625 -6.734375 C 2.066406 -7.597656 2.484375 -8.367188 3.015625 -9.046875 C 3.546875 -9.734375 4.160156 -10.273438 4.859375 -10.671875 C 5.554688 -11.078125 6.296875 -11.28125 7.078125 -11.28125 C 7.992188 -11.28125 8.804688 -11.046875 9.515625 -10.578125 C 10.222656 -10.117188 10.8125 -9.507812 11.28125 -8.75 C 11.75 -7.988281 12.101562 -7.171875 12.34375 -6.296875 C 12.59375 -5.421875 12.71875 -4.582031 12.71875 -3.78125 C 12.71875 -1.664062 12.269531 0.125 11.375 1.59375 C 10.476562 3.070312 9.195312 4.21875 7.53125 5.03125 C 5.875 5.84375 3.894531 6.3125 1.59375 6.4375 Z M 5.1875 -4.875 C 5.1875 -4.09375 5.769531 -3.703125 6.9375 -3.703125 C 7.5625 -3.703125 8.171875 -3.785156 8.765625 -3.953125 C 8.722656 -4.453125 8.628906 -4.945312 8.484375 -5.4375 C 8.347656 -5.9375 8.148438 -6.34375 7.890625 -6.65625 C 7.628906 -6.976562 7.304688 -7.140625 6.921875 -7.140625 C 6.390625 -7.140625 5.96875 -6.890625 5.65625 -6.390625 C 5.34375 -5.898438 5.1875 -5.394531 5.1875 -4.875 Z M 5.1875 -4.875 "/></g></g></g><g fill="rgb(52.159119%, 79.998779%, 100%)" fill-opacity="1"><g transform="translate(303.048263, 349.299968)"><g/></g></g><g fill="rgb(52.159119%, 79.998779%, 100%)" fill-opacity="1"><g transform="translate(315.619275, 349.299968)"><g><path d="M 11.875 0.59375 C 9.1875 0.59375 7.039062 0.320312 5.4375 -0.21875 C 3.832031 -0.757812 2.671875 -1.503906 1.953125 -2.453125 C 1.242188 -3.410156 0.890625 -4.5 0.890625 -5.71875 C 0.890625 -6.59375 1 -7.488281 1.21875 -8.40625 C 1.445312 -9.332031 1.664062 -10.148438 1.875 -10.859375 L 5.375 -10.046875 C 5.25 -9.523438 5.125 -8.96875 5 -8.375 C 4.875 -7.789062 4.8125 -7.273438 4.8125 -6.828125 C 4.8125 -6.117188 5.054688 -5.503906 5.546875 -4.984375 C 6.046875 -4.460938 6.863281 -4.054688 8 -3.765625 C 9.144531 -3.472656 10.675781 -3.328125 12.59375 -3.328125 C 14.375 -3.304688 15.804688 -3.359375 16.890625 -3.484375 C 17.984375 -3.609375 18.816406 -3.84375 19.390625 -4.1875 C 19.960938 -4.53125 20.335938 -5.023438 20.515625 -5.671875 C 20.691406 -6.316406 20.75 -7.140625 20.6875 -8.140625 L 20.078125 -20.5 L 24 -20.5 L 24.609375 -7.953125 C 24.671875 -6.828125 24.800781 -5.96875 25 -5.375 C 25.207031 -4.78125 25.515625 -4.363281 25.921875 -4.125 C 26.335938 -3.894531 26.878906 -3.78125 27.546875 -3.78125 C 28.242188 -3.78125 28.742188 -3.597656 29.046875 -3.234375 C 29.359375 -2.867188 29.515625 -2.414062 29.515625 -1.875 C 29.515625 -1.300781 29.316406 -0.820312 28.921875 -0.4375 C 28.535156 -0.0507812 27.984375 0.140625 27.265625 0.140625 C 26.273438 0.140625 25.40625 -0.0078125 24.65625 -0.3125 C 23.914062 -0.625 23.347656 -1.179688 22.953125 -1.984375 C 22.265625 -1.179688 21.382812 -0.59375 20.3125 -0.21875 C 19.238281 0.15625 17.992188 0.382812 16.578125 0.46875 C 15.160156 0.5625 13.59375 0.601562 11.875 0.59375 Z M 10.53125 -6.046875 L 9.796875 -8.8125 C 10.765625 -9.0625 11.484375 -9.28125 11.953125 -9.46875 C 12.421875 -9.65625 12.65625 -9.847656 12.65625 -10.046875 C 12.65625 -10.253906 12.519531 -10.5 12.25 -10.78125 C 11.976562 -11.0625 11.707031 -11.382812 11.4375 -11.75 C 11.164062 -12.125 11.03125 -12.566406 11.03125 -13.078125 C 11.03125 -13.765625 11.332031 -14.414062 11.9375 -15.03125 C 12.550781 -15.644531 13.582031 -16.242188 15.03125 -16.828125 L 16.234375 -14.34375 C 15.453125 -14.019531 14.925781 -13.738281 14.65625 -13.5 C 14.382812 -13.269531 14.25 -13.054688 14.25 -12.859375 C 14.25 -12.609375 14.382812 -12.328125 14.65625 -12.015625 C 14.925781 -11.710938 15.203125 -11.351562 15.484375 -10.9375 C 15.765625 -10.53125 15.90625 -10.078125 15.90625 -9.578125 C 15.90625 -9.160156 15.785156 -8.75 15.546875 -8.34375 C 15.316406 -7.9375 14.816406 -7.535156 14.046875 -7.140625 C 13.285156 -6.742188 12.113281 -6.378906 10.53125 -6.046875 Z M 10.53125 -6.046875 "/></g></g></g><g fill="rgb(52.159119%, 79.998779%, 100%)" fill-opacity="1"><g transform="translate(348.179568, 349.299968)"><g><path d="M 0 0.140625 L 0.28125 -3.75 C 1.8125 -3.75 3.050781 -3.757812 4 -3.78125 C 4.957031 -3.800781 5.703125 -3.84375 6.234375 -3.90625 C 6.765625 -3.96875 7.160156 -4.050781 7.421875 -4.15625 C 7.679688 -4.257812 7.90625 -4.378906 8.09375 -4.515625 C 8.238281 -4.617188 8.375 -4.753906 8.5 -4.921875 C 8.625 -5.097656 8.726562 -5.304688 8.8125 -5.546875 C 8.050781 -5.265625 7.257812 -5.125 6.4375 -5.125 C 4.945312 -5.125 3.769531 -5.4375 2.90625 -6.0625 C 2.050781 -6.6875 1.625 -7.789062 1.625 -9.375 C 1.625 -10.195312 1.765625 -11.015625 2.046875 -11.828125 C 2.328125 -12.640625 2.726562 -13.375 3.25 -14.03125 C 3.769531 -14.695312 4.382812 -15.226562 5.09375 -15.625 C 5.800781 -16.03125 6.585938 -16.234375 7.453125 -16.234375 C 8.722656 -16.234375 9.769531 -15.863281 10.59375 -15.125 C 11.425781 -14.394531 12.039062 -13.40625 12.4375 -12.15625 C 12.84375 -10.914062 13.046875 -9.539062 13.046875 -8.03125 C 13.046875 -6.707031 12.847656 -5.554688 12.453125 -4.578125 C 12.066406 -3.597656 11.601562 -2.828125 11.0625 -2.265625 C 10.613281 -1.796875 10.097656 -1.398438 9.515625 -1.078125 C 8.941406 -0.765625 8.238281 -0.519531 7.40625 -0.34375 C 6.570312 -0.164062 5.550781 -0.0390625 4.34375 0.03125 C 3.144531 0.101562 1.695312 0.140625 0 0.140625 Z M 5.484375 -10.140625 C 5.484375 -9.335938 6.109375 -8.9375 7.359375 -8.9375 C 7.960938 -8.9375 8.5625 -9.03125 9.15625 -9.21875 C 9.0625 -10.238281 8.847656 -11.019531 8.515625 -11.5625 C 8.179688 -12.101562 7.75 -12.375 7.21875 -12.375 C 6.769531 -12.375 6.367188 -12.160156 6.015625 -11.734375 C 5.660156 -11.304688 5.484375 -10.773438 5.484375 -10.140625 Z M 7.796875 -19.234375 C 7.222656 -19.234375 6.734375 -19.425781 6.328125 -19.8125 C 5.929688 -20.207031 5.734375 -20.695312 5.734375 -21.28125 C 5.734375 -21.851562 5.929688 -22.34375 6.328125 -22.75 C 6.734375 -23.164062 7.222656 -23.375 7.796875 -23.375 C 8.359375 -23.375 8.835938 -23.164062 9.234375 -22.75 C 9.640625 -22.34375 9.84375 -21.851562 9.84375 -21.28125 C 9.84375 -20.695312 9.640625 -20.207031 9.234375 -19.8125 C 8.835938 -19.425781 8.359375 -19.234375 7.796875 -19.234375 Z M 7.796875 -19.234375 "/></g></g></g></svg>